<?xml version="1.0" encoding="utf-8"?>
<!-- Generator: Adobe Illustrator 23.0.1, SVG Export Plug-In . SVG Version: 6.00 Build 0)  -->
<svg version="1.1" id="Layer_1" xmlns="http://www.w3.org/2000/svg" xmlns:xlink="http://www.w3.org/1999/xlink" x="0px" y="0px"
	 viewBox="0 0 500 500" style="enable-background:new 0 0 500 500;" xml:space="preserve">
<style type="text/css">
	.st0{fill:#FFFFFF;}
</style>
<g>
	<g id="_x31_8_8_">
		<g>
			<path class="st0" d="M0,29.1v147.3v147.3C0,405,65.9,470.9,147.3,470.9V323.6V176.4C147.3,95,81.3,29.1,0,29.1z"/>
			<path class="st0" d="M500,176.4C500,95,434.1,29.1,352.7,29.1c-81.3,0-147.3,65.9-147.3,147.3c0,26.8,7.2,52,19.7,73.6
				c-12.5,21.7-19.7,46.8-19.7,73.6c0,81.3,65.9,147.3,147.3,147.3c81.3,0,147.3-65.9,147.3-147.3c0-26.8-7.2-52-19.7-73.6
				C492.8,228.3,500,203.2,500,176.4z M352.4,378c-27.1,0-49.1-22-49.1-49.1s22-49.1,49.1-49.1c27.1,0,49.1,22,49.1,49.1
				S379.5,378,352.4,378z M352.7,223.2c-27.1,0-49.1-22-49.1-49.1s22-49.1,49.1-49.1c27.1,0,49.1,22,49.1,49.1
				S379.9,223.2,352.7,223.2z"/>
		</g>
	</g>
</g>
</svg>
