<svg version="1" xmlns="http://www.w3.org/2000/svg" width="1440" height="1440" viewBox="0 0 1080.000000 1080.000000"><path d="M274.5.7c-59.1 5-110.2 23.9-155 57.3C53.7 107 12 179 1.8 261c-1.9 15.4-1.9 542.6 0 558 16 128.4 110.5 230.5 236.2 255.4 26.8 5.3 14.1 5.1 302 5.1s275.2.2 302-5.1c117.4-23.2 209.2-115 232.4-232.4 5.3-26.8 5.1-14.1 5.1-302s.2-275.2-5.1-302C1051.5 122.4 962.2 31.5 846.9 6.6 817.2.1 839.5.6 545.5.4c-146.8 0-268.8.1-271 .3zm-73 225.4c51.3 4.4 99.3 27.5 134.6 64.6 29.3 30.9 47.7 68.1 55.6 112.4 1.5 8.6 1.7 29.1 2 230.6L394 855h-3.2c-7.9 0-27.3-2.3-38.8-4.6-29.8-6-59.9-19.5-84.8-38.1-9.8-7.4-28.7-25.6-36.5-35.3-22.6-28-35.7-56.8-44-96.5-2.1-9.9-2.1-11.4-2.4-232.8L184 225h2.7c1.6 0 8.2.5 14.8 1.1zm502.5 0c39.6 3.6 77.3 18 108.8 41.6 9.8 7.4 28.7 25.6 36.5 35.3 29 36 44.8 78.5 46.4 124.6 1.2 35.8-5.6 68.2-21 99.7l-6.2 12.7 6.2 12.7c15.4 31.5 22.2 63.9 21 99.7-1.6 46.1-17.4 88.6-46.4 124.6-7.8 9.7-26.7 27.9-36.5 35.3a211.58 211.58 0 0 1-157.4 40.1c-90.9-13.2-160.2-80.6-175.8-170.9-7.6-43.4-.9-89.8 18.5-129.2l6-12.3-6-12.2c-34.9-71-26.8-157.5 20.6-220.6 7.8-10.3 21.8-24.9 32.8-34 41.3-34.5 98.2-52.1 152.5-47.1z"/><path d="M676.5 362.9c-23 3.8-42.3 17.8-52.7 38.4-9.1 18.1-9.1 43.3 0 61.4 8.5 16.7 23.5 29.7 41.4 35.7 7.6 2.5 20.5 3.7 28.8 2.7 17.1-2.2 29.1-8.2 41.6-20.7 6.7-6.6 9-9.7 12.7-17.5 10.2-20.8 10.2-41.3.1-61.9-3.9-7.9-6.2-11-13.3-18.1-6.9-6.9-10.3-9.4-17.1-12.7-4.7-2.3-11.2-4.9-14.5-5.7-7.5-1.9-20.4-2.6-27-1.6zM668.4 585c-23.5 6.1-42.2 24.3-49.5 48-3 9.5-3.2 27-.6 36.7 7.8 29.2 33 50 63 52 33.2 2.1 64.6-20.9 72.2-52.9 2.1-9.1 1.9-24.8-.5-34.2-6.1-24.1-25.5-43.5-49.6-49.6-10.1-2.6-25.2-2.6-35 0z"/></svg>