<?xml version="1.0" encoding="utf-8"?>
<!-- Generator: Adobe Illustrator 24.2.3, SVG Export Plug-In . SVG Version: 6.00 Build 0)  -->
<svg version="1.1" id="Layer_1" xmlns="http://www.w3.org/2000/svg" xmlns:xlink="http://www.w3.org/1999/xlink" x="0px" y="0px"
	 viewBox="0 0 379.71 379.71" style="enable-background:new 0 0 379.71 379.71;" xml:space="preserve">
<style type="text/css">
	.st0{opacity:0.4;fill:#FFFFFF;enable-background:new    ;}
</style>
<path class="st0" d="M0,303.16v76.55h76.55v-76.55L0,303.16L0,303.16z M38.09,340.98L1.03,303.92h37.06
	C38.09,303.92,38.09,340.98,38.09,340.98z M38.47,303.92h37.06l-37.06,37.06V303.92z M37.82,341.24H0.76v-37.06L37.82,341.24z
	 M0.76,341.62h37.06L0.76,378.68V341.62z M38.09,341.89v37.06H1.03L38.09,341.89z M38.47,341.89l37.06,37.06H38.47V341.89z
	 M38.73,341.62h37.06v37.06L38.73,341.62z M75.79,341.24H38.73l37.06-37.06V341.24z"/>
<path class="st0" d="M75.79,303.16v76.55h76.55v-76.55L75.79,303.16L75.79,303.16z M113.88,340.98l-37.06-37.06h37.06V340.98z
	 M114.26,303.92h37.06l-37.06,37.06C114.26,340.98,114.26,303.92,114.26,303.92z M113.61,341.24H76.55v-37.06L113.61,341.24z
	 M76.55,341.62h37.06l-37.06,37.06V341.62z M113.88,341.89v37.06H76.82L113.88,341.89z M114.26,341.89l37.06,37.06h-37.06
	C114.26,378.95,114.26,341.89,114.26,341.89z M114.52,341.62h37.06v37.06L114.52,341.62z M151.58,341.24h-37.06l37.06-37.06V341.24z
	"/>
<path class="st0" d="M0,227.37v76.55h76.55v-76.55L0,227.37L0,227.37z M38.09,265.19L1.03,228.13h37.06
	C38.09,228.13,38.09,265.19,38.09,265.19z M38.47,228.13h37.06l-37.06,37.06V228.13z M37.82,265.45H0.76V228.4L37.82,265.45z
	 M0.76,265.83h37.06L0.76,302.89V265.83z M38.09,266.1v37.06H1.03L38.09,266.1z M38.47,266.1l37.06,37.06H38.47V266.1z
	 M38.73,265.83h37.06v37.06L38.73,265.83z M75.79,265.45H38.73l37.06-37.06V265.45z"/>
<path class="st0" d="M75.79,227.37v76.55h76.55v-76.55L75.79,227.37L75.79,227.37z M113.88,265.19l-37.06-37.06h37.06V265.19z
	 M114.26,228.13h37.06l-37.06,37.06C114.26,265.19,114.26,228.13,114.26,228.13z M113.61,265.45H76.55V228.4L113.61,265.45z
	 M76.55,265.83h37.06l-37.06,37.06V265.83z M113.88,266.1v37.06H76.82L113.88,266.1z M114.26,266.1l37.06,37.06h-37.06
	C114.26,303.16,114.26,266.1,114.26,266.1z M114.52,265.83h37.06v37.06L114.52,265.83z M151.58,265.45h-37.06l37.06-37.06V265.45z"
	/>
<path class="st0" d="M151.58,303.16v76.55h76.55v-76.55L151.58,303.16L151.58,303.16z M189.67,340.98l-37.06-37.06h37.06V340.98z
	 M190.05,303.92h37.06l-37.06,37.06V303.92z M189.4,341.24h-37.06v-37.06L189.4,341.24z M152.34,341.62h37.06l-37.06,37.06V341.62z
	 M189.67,341.89v37.06h-37.06L189.67,341.89z M190.05,341.89l37.06,37.06h-37.06V341.89z M190.31,341.62h37.06v37.06L190.31,341.62z
	 M227.37,341.24h-37.06l37.06-37.06V341.24z"/>
<path class="st0" d="M227.37,303.16v76.55h76.55v-76.55L227.37,303.16L227.37,303.16z M265.46,340.98l-37.06-37.06h37.06V340.98z
	 M265.83,303.92h37.06l-37.06,37.06V303.92z M265.19,341.24h-37.06v-37.06L265.19,341.24z M228.13,341.62h37.06l-37.06,37.06V341.62
	z M265.46,341.89v37.06H228.4L265.46,341.89z M265.83,341.89l37.06,37.06h-37.06V341.89z M266.1,341.62h37.06v37.06L266.1,341.62z
	 M303.16,341.24H266.1l37.06-37.06V341.24z"/>
<path class="st0" d="M303.16,303.16v76.55h76.55v-76.55L303.16,303.16L303.16,303.16z M341.25,340.98l-37.06-37.06h37.06V340.98z
	 M341.62,303.92h37.06l-37.06,37.06V303.92z M340.98,341.24h-37.06v-37.06L340.98,341.24z M303.92,341.62h37.06l-37.06,37.06V341.62
	z M341.25,341.89v37.06h-37.06L341.25,341.89z M341.62,341.89l37.06,37.06h-37.06V341.89z M341.89,341.62h37.06v37.06L341.89,341.62
	z M378.95,341.24h-37.06l37.06-37.06V341.24z"/>
<path class="st0" d="M151.58,227.37v76.55h76.55v-76.55L151.58,227.37L151.58,227.37z M189.67,265.19l-37.06-37.06h37.06V265.19z
	 M190.05,228.13h37.06l-37.06,37.06V228.13z M189.4,265.45h-37.06V228.4L189.4,265.45z M152.34,265.83h37.06l-37.06,37.06V265.83z
	 M189.67,266.1v37.06h-37.06L189.67,266.1z M190.05,266.1l37.06,37.06h-37.06V266.1z M190.31,265.83h37.06v37.06L190.31,265.83z
	 M227.37,265.45h-37.06l37.06-37.06V265.45z"/>
<path class="st0" d="M227.37,227.37v76.55h76.55v-76.55L227.37,227.37L227.37,227.37z M265.46,265.19l-37.06-37.06h37.06V265.19z
	 M265.83,228.13h37.06l-37.06,37.06V228.13z M265.19,265.45h-37.06V228.4L265.19,265.45z M228.13,265.83h37.06l-37.06,37.06V265.83z
	 M265.46,266.1v37.06H228.4L265.46,266.1z M265.83,266.1l37.06,37.06h-37.06V266.1z M266.1,265.83h37.06v37.06L266.1,265.83z
	 M303.16,265.45H266.1l37.06-37.06V265.45z"/>
<path class="st0" d="M0,151.58v76.55h76.55v-76.55H0z M38.09,189.4L1.03,152.34h37.06C38.09,152.34,38.09,189.4,38.09,189.4z
	 M38.47,152.34h37.06L38.47,189.4V152.34z M37.82,189.67H0.76v-37.06L37.82,189.67z M0.76,190.04h37.06L0.76,227.1V190.04z
	 M38.09,190.31v37.06H1.03L38.09,190.31z M38.47,190.31l37.06,37.06H38.47V190.31z M38.73,190.04h37.06v37.06L38.73,190.04z
	 M75.79,189.67H38.73l37.06-37.06V189.67z"/>
<path class="st0" d="M75.79,151.58v76.55h76.55v-76.55H75.79z M113.88,189.4l-37.06-37.06h37.06V189.4z M114.26,152.34h37.06
	l-37.06,37.06C114.26,189.4,114.26,152.34,114.26,152.34z M113.61,189.67H76.55v-37.06L113.61,189.67z M76.55,190.04h37.06
	L76.55,227.1V190.04z M113.88,190.31v37.06H76.82L113.88,190.31z M114.26,190.31l37.06,37.06h-37.06
	C114.26,227.37,114.26,190.31,114.26,190.31z M114.52,190.04h37.06v37.06L114.52,190.04z M151.58,189.67h-37.06l37.06-37.06V189.67z
	"/>
<path class="st0" d="M151.58,151.58v76.55h76.55v-76.55H151.58z M189.67,189.4l-37.06-37.06h37.06V189.4z M190.05,152.34h37.06
	l-37.06,37.06V152.34z M189.4,189.67h-37.06v-37.06L189.4,189.67z M152.34,190.04h37.06l-37.06,37.06V190.04z M189.67,190.31v37.06
	h-37.06L189.67,190.31z M190.05,190.31l37.06,37.06h-37.06V190.31z M190.31,190.04h37.06v37.06L190.31,190.04z M227.37,189.67
	h-37.06l37.06-37.06V189.67z"/>
<path class="st0" d="M0,75.79v76.55h76.55V75.79H0z M38.09,113.61L1.03,76.55h37.06C38.09,76.55,38.09,113.61,38.09,113.61z
	 M38.47,76.55h37.06l-37.06,37.06V76.55z M37.82,113.88H0.76V76.82L37.82,113.88z M0.76,114.25h37.06L0.76,151.31V114.25z
	 M38.09,114.52v37.06H1.03L38.09,114.52z M38.47,114.52l37.06,37.06H38.47V114.52z M38.73,114.25h37.06v37.06L38.73,114.25z
	 M75.79,113.88H38.73l37.06-37.06V113.88z"/>
<path class="st0" d="M0,0v76.55h76.55V0H0z M38.09,37.82L1.03,0.76h37.06C38.09,0.76,38.09,37.82,38.09,37.82z M38.47,0.76h37.06
	L38.47,37.82V0.76z M37.82,38.09H0.76V1.03L37.82,38.09z M0.76,38.47h37.06L0.76,75.52V38.47z M38.09,38.73v37.06H1.03L38.09,38.73z
	 M38.47,38.73l37.06,37.06H38.47V38.73z M38.73,38.47h37.06v37.06L38.73,38.47z M75.79,38.09H38.73L75.79,1.03V38.09z"/>
<path class="st0" d="M75.79,75.79v76.55h76.55V75.79H75.79z M113.88,113.61L76.82,76.55h37.06V113.61z M114.26,76.55h37.06
	l-37.06,37.06C114.26,113.61,114.26,76.55,114.26,76.55z M113.61,113.88H76.55V76.82L113.61,113.88z M76.55,114.25h37.06
	l-37.06,37.06V114.25z M113.88,114.52v37.06H76.82L113.88,114.52z M114.26,114.52l37.06,37.06h-37.06
	C114.26,151.58,114.26,114.52,114.26,114.52z M114.52,114.25h37.06v37.06L114.52,114.25z M151.58,113.88h-37.06l37.06-37.06V113.88z
	"/>
</svg>
