<?xml version="1.0" encoding="utf-8"?>
<!-- Generator: Adobe Illustrator 24.2.3, SVG Export Plug-In . SVG Version: 6.00 Build 0)  -->
<svg version="1.1" id="Layer_1" xmlns="http://www.w3.org/2000/svg" xmlns:xlink="http://www.w3.org/1999/xlink" x="0px" y="0px"
	 viewBox="0 0 551.75 363.78" style="enable-background:new 0 0 551.75 363.78;" xml:space="preserve">
<style type="text/css">
	.st0{opacity:0.4;fill:#FFFFFF;enable-background:new    ;}
	.st1{fill:none;stroke:#FFFFFF;stroke-width:0.75;stroke-miterlimit:10;}
	.st2{fill:none;stroke:#FFFFFF;stroke-miterlimit:10;}

		.st3{opacity:0.6;fill:none;stroke:#FFFFFF;stroke-width:0.75;stroke-miterlimit:10;stroke-dasharray:10,20;enable-background:new    ;}
	.st4{fill:none;stroke:#FFFFFF;stroke-linecap:round;stroke-miterlimit:10;}
</style>
<g>
	<path class="st0" d="M323.62,287.23v76.55h76.55v-76.55L323.62,287.23L323.62,287.23z M361.71,325.05l-37.06-37.06h37.06V325.05z
		 M362.08,287.99h37.06l-37.06,37.06V287.99z M361.44,325.32h-37.06v-37.06L361.44,325.32z M324.38,325.7h37.06l-37.06,37.06V325.7z
		 M361.71,325.97v37.06h-37.06L361.71,325.97z M362.08,325.97l37.06,37.06h-37.06V325.97z M362.35,325.7h37.06v37.06L362.35,325.7z
		 M399.41,325.32h-37.06l37.06-37.06V325.32z"/>
	<path class="st0" d="M322.86,211.45V288h76.55v-76.55H322.86z M360.95,249.26l-37.06-37.06h37.06V249.26z M361.33,212.2h37.06
		l-37.06,37.06V212.2z M360.68,249.53h-37.06v-37.06L360.68,249.53z M323.62,249.91h37.06l-37.06,37.06V249.91z M360.95,250.18
		v37.06h-37.06L360.95,250.18z M361.33,250.18l37.06,37.06h-37.06V250.18z M361.59,249.91h37.06v37.06L361.59,249.91z
		 M398.65,249.53h-37.06l37.06-37.06V249.53z"/>
	<path class="st0" d="M247.45,136.03v76.55H324v-76.55H247.45z M285.54,173.85l-37.06-37.06h37.06V173.85z M285.92,136.79h37.06
		l-37.06,37.06V136.79z M285.27,174.12h-37.06v-37.06L285.27,174.12z M248.21,174.5h37.06l-37.06,37.06V174.5z M285.54,174.77v37.06
		h-37.06L285.54,174.77z M285.92,174.77l37.06,37.06h-37.06V174.77z M286.18,174.5h37.06v37.06L286.18,174.5z M323.24,174.12h-37.06
		l37.06-37.06V174.12z"/>
	<path class="st0" d="M475.2,211.45V288h76.55v-76.55H475.2z M513.28,249.26l-37.06-37.06h37.06V249.26z M513.66,212.2h37.06
		l-37.06,37.06V212.2z M513.02,249.53h-37.06v-37.06L513.02,249.53z M475.96,249.91h37.06l-37.06,37.06V249.91z M513.28,250.18
		v37.06h-37.06L513.28,250.18z M513.66,250.18l37.06,37.06h-37.06V250.18z M513.93,249.91h37.06v37.06L513.93,249.91z
		 M550.99,249.53h-37.06l37.06-37.06V249.53z"/>
	<path class="st0" d="M399.41,211.45V288h76.55v-76.55H399.41z M437.49,249.26l-37.06-37.06h37.06V249.26z M437.87,212.2h37.06
		l-37.06,37.06V212.2z M437.23,249.53h-37.06v-37.06L437.23,249.53z M400.17,249.91h37.06l-37.06,37.06V249.91z M437.49,250.18
		v37.06h-37.06L437.49,250.18z M437.87,250.18l37.06,37.06h-37.06V250.18z M438.14,249.91h37.06v37.06L438.14,249.91z M475.2,249.53
		h-37.06l37.06-37.06V249.53z"/>
	<polyline class="st1" points="0,212.2 286.48,212.2 323.62,212.2 360.76,212.2 551.75,212.2 	"/>
	<polyline class="st2" points="323.62,0.75 323.62,175.07 323.62,212.2 323.62,249.34 323.62,364.54 	"/>
	<path class="st3" d="M323.62,212.2v75.03c-41.44,0-75.03-33.6-75.03-75.03L323.62,212.2L323.62,212.2z"/>
	<line class="st4" x1="400.17" y1="24.25" x2="361.52" y2="62.9"/>
	<line class="st4" x1="400.17" y1="61.38" x2="361.52" y2="100.03"/>
	<line class="st4" x1="400.17" y1="98.52" x2="361.52" y2="137.17"/>
	<line class="st4" x1="400.17" y1="136.41" x2="361.52" y2="175.07"/>
</g>
</svg>
