<?xml version="1.0" encoding="utf-8"?>
<!-- Generator: Adobe Illustrator 23.1.0, SVG Export Plug-In . SVG Version: 6.00 Build 0)  -->
<svg version="1.1" id="Layer_1" xmlns="http://www.w3.org/2000/svg" xmlns:xlink="http://www.w3.org/1999/xlink" x="0px" y="0px"
	 viewBox="0 0 274.6 274.6" style="enable-background:new 0 0 274.6 274.6;" xml:space="preserve">
<style type="text/css">
	.st0{fill:none;}
	.st1{fill:none;stroke:#E6A537;stroke-width:0.66;}
	.st2{fill:url(#SVGID_1_);}
</style>
<pattern  x="61.3" y="213.7" width="46.8" height="54" patternUnits="userSpaceOnUse" id="Circles_2" viewBox="2.9 -56.4 46.8 54" style="overflow:visible;">
	<g>
		<rect x="2.9" y="-56.4" class="st0" width="46.8" height="54"/>
		<g>
			<path class="st1" d="M44-34.8c0.4-0.7,0.2-1.6-0.5-2c-0.7-0.4-1.6-0.2-2,0.5c-0.4,0.7-0.2,1.6,0.5,2C42.7-33.9,43.6-34.1,44-34.8
				z"/>
			<path class="st1" d="M42.7-26.5c-0.4-0.7-1.3-1-2-0.5c-0.7,0.4-1,1.3-0.5,2c0.4,0.7,1.3,1,2,0.5C42.9-24.8,43.2-25.8,42.7-26.5z"
				/>
			<path class="st1" d="M34.5-39.6c-0.4-0.7-1.3-1-2-0.5c-0.7,0.4-1,1.3-0.5,2c0.4,0.7,1.3,1,2,0.5C34.7-37.9,34.9-38.9,34.5-39.6z"
				/>
			<path class="st1" d="M26.9-32.8c0.4-0.7,0.2-1.6-0.5-2c-0.7-0.4-1.6-0.2-2.1,0.5c-0.4,0.7-0.2,1.6,0.6,2
				C25.6-31.8,26.5-32.1,26.9-32.8z"/>
			<path class="st1" d="M29.7-26.6c-0.4-0.7-1.3-1-2-0.5c-0.7,0.4-1,1.3-0.5,2c0.4,0.7,1.3,1,2,0.5C29.9-24.9,30.2-25.9,29.7-26.6z"
				/>
			<circle class="st1" cx="35.4" cy="-20.4" r="1.5"/>
			<path class="st1" d="M9.5-32.7c-0.4-0.7-0.2-1.6,0.5-2c0.7-0.4,1.6-0.2,2,0.5c0.4,0.7,0.2,1.6-0.5,2C10.8-31.8,9.9-32,9.5-32.7z"
				/>
			<path class="st1" d="M10.1-25.2c0.4-0.7,1.3-1,2-0.5c0.7,0.4,1,1.3,0.5,2.1c-0.4,0.7-1.3,1-2,0.5C9.9-23.5,9.7-24.4,10.1-25.2z"
				/>
			<path class="st1" d="M15.3-40c0.4-0.7,1.3-1,2.1-0.5c0.7,0.4,1,1.3,0.5,2c-0.4,0.7-1.3,1-2,0.5C15.2-38.3,14.9-39.3,15.3-40z"/>
			<circle class="st1" cx="20.9" cy="-21.4" r="1.5"/>
			<path class="st1" d="M44-6.4c-0.4,0.7-1.3,1-2,0.5c-0.7-0.4-1-1.3-0.5-2c0.4-0.7,1.3-1,2-0.5C44.1-8,44.4-7.1,44-6.4z"/>
			<path class="st1" d="M28.2-6.3c-0.4,0.7-1.3,1-2,0.5c-0.7-0.4-1-1.3-0.5-2c0.4-0.7,1.3-1,2-0.5C28.4-8,28.7-7,28.2-6.3z"/>
			<circle class="st1" cx="34.1" cy="-11.4" r="1.5"/>
			<path class="st1" d="M8.7-6c0.4,0.7,1.3,1,2,0.5c0.7-0.4,1-1.3,0.5-2c-0.4-0.7-1.3-1-2-0.5C8.5-7.7,8.3-6.7,8.7-6z"/>
			<circle class="st1" cx="18.8" cy="-13.4" r="1.5"/>
			<path class="st1" d="M43.2-52.7c0.4,0.7,0.2,1.6-0.5,2c-0.7,0.4-1.6,0.2-2-0.5c-0.4-0.7-0.2-1.6,0.5-2
				C41.9-53.6,42.8-53.4,43.2-52.7z"/>
			<path class="st1" d="M35.4-46.7c-0.4,0.7-1.3,1-2,0.5c-0.7-0.4-1-1.3-0.5-2c0.4-0.7,1.3-1,2-0.5C35.6-48.3,35.8-47.4,35.4-46.7z"
				/>
			<path class="st1" d="M28.3-53.3c0.4,0.7,0.2,1.6-0.5,2c-0.7,0.4-1.6,0.2-2-0.5c-0.4-0.7-0.2-1.6,0.5-2C27-54.2,27.9-54,28.3-53.3
				z"/>
			<path class="st1" d="M9.4-52.7C9-51.9,9.3-51,10-50.6c0.7,0.4,1.6,0.2,2-0.5c0.4-0.7,0.2-1.6-0.5-2C10.8-53.6,9.8-53.4,9.4-52.7z
				"/>
			<path class="st1" d="M17.7-47.7c0.4,0.7,1.3,1,2,0.5c0.7-0.4,1-1.3,0.5-2c-0.4-0.7-1.3-1-2-0.5C17.6-49.3,17.3-48.4,17.7-47.7z"
				/>
			<circle class="st1" cx="50.4" cy="-38.9" r="1.5"/>
			<circle class="st1" cx="50.4" cy="-11.4" r="1.5"/>
			<path class="st1" d="M28.7-17.1c-0.4-0.7-1.3-1-2-0.5c-0.7,0.4-1,1.3-0.5,2c0.4,0.7,1.3,1,2,0.5C28.9-15.4,29.2-16.4,28.7-17.1z"
				/>
			<path class="st1" d="M20.2-30.1c-0.4-0.7-1.3-1-2-0.5c-0.7,0.4-1,1.3-0.5,2c0.4,0.7,1.3,1,2,0.5C20.4-28.4,20.7-29.4,20.2-30.1z"
				/>
			<path class="st1" d="M36.5-31.9c-0.4-0.7-1.3-1-2-0.5c-0.7,0.4-1,1.3-0.5,2c0.4,0.7,1.3,1,2,0.5C36.7-30.3,36.9-31.2,36.5-31.9z"
				/>
			<path class="st1" d="M27.5-43.6c-0.4-0.7-1.3-1-2-0.5c-0.7,0.4-1,1.3-0.5,2c0.4,0.7,1.3,1,2,0.5C27.7-41.9,27.9-42.9,27.5-43.6z"
				/>
			<path class="st1" d="M11-44.1c-0.4-0.7-1.3-1-2-0.5c-0.7,0.4-1,1.3-0.5,2c0.4,0.7,1.3,1,2,0.5C11.2-42.4,11.4-43.4,11-44.1z"/>
			<path class="st1" d="M43.1-44.2c-0.4-0.7-1.3-1-2-0.5c-0.7,0.4-1,1.3-0.6,2c0.4,0.7,1.3,1,2.1,0.5C43.2-42.5,43.5-43.4,43.1-44.2
				z"/>
			<path class="st1" d="M11.2-17.1c-0.4-0.7-1.3-1-2-0.5c-0.7,0.4-1,1.3-0.5,2c0.4,0.7,1.3,1,2,0.5C11.4-15.4,11.7-16.4,11.2-17.1z"
				/>
			<path class="st1" d="M19.7-4.3c-0.4-0.7-1.3-1-2-0.5c-0.7,0.4-1,1.3-0.5,2c0.4,0.7,1.3,1,2,0.5C19.9-2.7,20.2-3.6,19.7-4.3z"/>
			<path class="st1" d="M37.5-3.8c-0.4-0.7-1.3-1-2-0.5c-0.7,0.4-1,1.3-0.5,2c0.4,0.7,1.3,1,2,0.5C37.7-2.2,37.9-3.1,37.5-3.8z"/>
			<circle class="st1" cx="42.4" cy="-15.2" r="1.5"/>
			<circle class="st1" cx="49.7" cy="-1.6" r="1.5"/>
			<path class="st1" d="M50.7-30.2c-0.4-0.7-1.3-1-2.1-0.5c-0.7,0.4-1,1.3-0.5,2c0.4,0.7,1.3,1,2,0.5C50.9-28.6,51.1-29.5,50.7-30.2
				z"/>
			<circle class="st1" cx="50.4" cy="-48.4" r="1.5"/>
			<circle class="st1" cx="48.4" cy="-20.2" r="1.5"/>
		</g>
		<g>
			<circle class="st1" cx="3.7" cy="-38.9" r="1.5"/>
			<circle class="st1" cx="3.7" cy="-11.4" r="1.5"/>
			<circle class="st1" cx="2.9" cy="-1.6" r="1.5"/>
			<path class="st1" d="M4-30.2c-0.4-0.7-1.3-1-2.1-0.5c-0.7,0.4-1,1.3-0.5,2c0.4,0.7,1.3,1,2,0.5C4.1-28.6,4.4-29.5,4-30.2z"/>
			<circle class="st1" cx="3.6" cy="-48.4" r="1.5"/>
			<circle class="st1" cx="1.6" cy="-20.2" r="1.5"/>
		</g>
		<g>
			<path class="st1" d="M19.7-58.3c-0.4-0.7-1.3-1-2-0.5c-0.7,0.4-1,1.3-0.5,2c0.4,0.7,1.3,1,2,0.5C19.9-56.7,20.2-57.6,19.7-58.3z"
				/>
			<path class="st1" d="M37.5-57.8c-0.4-0.7-1.3-1-2-0.5c-0.7,0.4-1,1.3-0.5,2c0.4,0.7,1.3,1,2,0.5C37.7-56.2,37.9-57.1,37.5-57.8z"
				/>
			<circle class="st1" cx="49.7" cy="-55.7" r="1.5"/>
		</g>
		<g>
			<circle class="st1" cx="2.9" cy="-55.7" r="1.5"/>
		</g>
	</g>
</pattern>
<pattern  id="SVGID_1_" xlink:href="#Circles_2" patternTransform="matrix(1 0 0 1 -42.2181 -22.3291)">
</pattern>
<circle class="st2" cx="137.3" cy="137.3" r="137"/>
</svg>
