<?xml version="1.0" encoding="utf-8"?>
<!-- Generator: Adobe Illustrator 23.1.0, SVG Export Plug-In . SVG Version: 6.00 Build 0)  -->
<svg version="1.1" id="Layer_1" xmlns="http://www.w3.org/2000/svg" xmlns:xlink="http://www.w3.org/1999/xlink" x="0px" y="0px"
	 viewBox="0 0 500 500" style="enable-background:new 0 0 500 500;" xml:space="preserve">
<style type="text/css">
	.st0{fill:none;}
	.st1{fill:#7FB3D7;}
	.st2{fill:url(#SVGID_1_);}
	.st3{fill:#FFFFFF;}
	.st4{opacity:0.6;fill:none;stroke:#FFFFFF;stroke-width:3;stroke-linecap:round;stroke-miterlimit:10;}
</style>
<pattern  width="12.5" height="22.5" patternUnits="userSpaceOnUse" id="green_x5F_dots_2" viewBox="2.5 -25 12.5 22.5" style="overflow:visible;">
	<g>
		<rect x="2.5" y="-25" class="st0" width="12.5" height="22.5"/>
		<circle class="st1" cx="15" cy="-2.5" r="2.5"/>
		<circle class="st1" cx="2.5" cy="-2.5" r="2.5"/>
		<circle class="st1" cx="8.8" cy="-13.8" r="2.5"/>
		<circle class="st1" cx="15" cy="-25" r="2.5"/>
		<circle class="st1" cx="2.5" cy="-25" r="2.5"/>
	</g>
</pattern>
<g>
	<path class="st1" d="M425.1,186l-7.5-4.8c-1.7-1.1-3.7-1.7-5.7-1.7h-323c-2,0-4,0.6-5.7,1.7l-7.5,4.8c-3.2,2.1-5.2,5.6-5.2,9.4v109
		c0,3.8,1.9,7.4,5.2,9.4l7.5,4.8c1.7,1.1,3.7,1.7,5.7,1.7h323c2,0,4-0.6,5.7-1.7l7.5-4.8c3.2-2.1,5.2-5.6,5.2-9.4v-109
		C430.2,191.6,428.3,188,425.1,186z M408.5,314H92.2V185.8h316.4V314z"/>
	<g>
		<pattern  id="SVGID_1_" xlink:href="#green_x5F_dots_2" patternTransform="matrix(1 0 0 1 -2.5 -27)">
		</pattern>
		<rect x="89" y="180.8" class="st2" width="322.7" height="138.2"/>
	</g>
	<g>
		<rect x="229.3" y="231.5" class="st1" width="43.7" height="34"/>
		<g>
			<path class="st3" d="M248.3,248.4c0-2.2,0-4.4,0-6.5c0-0.2,0-0.4,0-0.5c0-0.1,0-0.2,0.1-0.1c0.6,0,1.2,0,1.8,0c0.9,0,1.9,0,2.8,0
				c0.6,0,1.2,0.2,1.6,0.7c0.5,0.5,0.7,1,0.7,1.7c0,0.9,0,1.8,0,2.7c0,0.3-0.1,0.6-0.3,0.9c-0.1,0.2-0.4,0.4-0.5,0.6
				c-0.1,0.1-0.1,0.1-0.2,0.1c-0.1,0.1-0.1,0.1,0,0.2c0.1,0,0.1,0.1,0.2,0.1c0.5,0.4,0.8,0.8,1,1.5c0.1,0.3,0.1,0.6,0.1,0.9
				c0,1,0,2,0,3c0,0.5-0.2,1-0.4,1.3c-0.5,0.6-1.1,0.9-1.9,1c-0.6,0-1.3,0-1.9,0c-1,0-2,0-2.9,0c-0.2,0-0.2,0-0.2-0.2
				C248.3,253.1,248.3,250.7,248.3,248.4C248.3,248.4,248.3,248.4,248.3,248.4z M250.7,251.4c0,0.9,0,1.8,0,2.7
				c0,0.2,0.1,0.2,0.2,0.2c0.4,0,0.9,0,1.3,0c0.1,0,0.3,0,0.4-0.1c0.2-0.1,0.4-0.3,0.5-0.6c0-0.2,0-0.3,0-0.5c0-1,0-2,0-3
				c0-0.3,0-0.6-0.1-0.9c-0.1-0.3-0.4-0.6-0.7-0.6c-0.5-0.1-1,0-1.5,0c-0.1,0-0.1,0.1-0.1,0.2C250.7,249.6,250.7,250.5,250.7,251.4z
				 M250.7,244.8C250.7,244.8,250.7,244.8,250.7,244.8c0,0.7,0,1.5,0,2.2c0,0.3,0,0.3,0.3,0.3c0.2,0,0.5,0,0.7,0
				c0.3,0,0.5,0,0.8-0.1c0.3,0,0.6-0.4,0.6-0.7c0-1,0-2,0-3c0-0.2,0-0.3-0.1-0.5c-0.2-0.4-0.5-0.5-0.9-0.6c-0.4,0-0.8,0-1.2,0
				c-0.2,0-0.2,0-0.2,0.2C250.7,243.3,250.7,244.1,250.7,244.8z"/>
			<path class="st3" d="M257.5,248.4c0-2.3,0-4.6,0-6.9c0-0.1,0-0.1,0-0.2c0-0.2,0-0.2,0.2-0.2c0.2,0,0.5,0,0.7,0c0.5,0,0.9,0,1.4,0
				c0.1,0,0.2,0,0.2,0.2c0,0.8,0,1.7,0,2.5c0,3,0,6,0,9.1c0,0.3,0,0.5,0,0.8c0.1,0.4,0.4,0.8,0.8,0.8c0.2,0,0.5,0,0.7,0
				c0.4-0.1,0.8-0.5,0.8-1c0-0.7,0-1.3,0-2c0-0.2,0-0.3,0.3-0.3c0.6,0,1.2,0,1.9,0c0.2,0,0.2,0,0.2,0.2c0,1.3,0,2.7,0,4
				c0,0.2,0,0.2-0.2,0.2c-2,0-4,0-6,0c-0.2,0-0.5,0-0.7,0c-0.2,0-0.2,0-0.2-0.2C257.5,253.1,257.5,250.7,257.5,248.4
				C257.5,248.4,257.5,248.4,257.5,248.4z"/>
			<path class="st3" d="M243.9,247.5c0-1.9,0-3.8,0-5.6c0-0.2,0-0.4,0-0.6c0-0.1,0-0.2,0.1-0.2c0.7,0,1.4,0,2.1,0
				c0.2,0,0.2,0,0.2,0.2c0,0.5,0,1,0,1.6c0,3.3,0,6.6,0,9.8c0,0.1,0,0.2,0,0.3c0,0.4-0.1,0.8-0.3,1.2c0,0.1-0.1,0.2-0.2,0.3
				c-0.1,0.1-0.2,0.2-0.2,0.3c-0.2,0.3-0.6,0.5-0.9,0.7c-0.4,0.2-0.8,0.3-1.2,0.3c-0.6,0-1.2,0-1.8,0c-0.3,0-0.6-0.1-0.9-0.2
				c-0.3-0.2-0.6-0.3-0.9-0.6c-0.1-0.1-0.2-0.3-0.3-0.4c-0.4-0.5-0.5-1.2-0.5-1.8c0-0.5,0-1,0-1.4c0-0.2,0-0.2,0.2-0.2
				c0.7,0,1.4,0,2.1,0c0.1,0,0.2,0.1,0.2,0.2c0,0.7,0,1.4,0,2.1c0,0.1,0,0.3,0,0.4c0.1,0.5,0.5,0.9,1.1,0.9c0.3,0,0.6,0,0.8-0.2
				c0.3-0.2,0.4-0.5,0.5-0.9c0-0.4,0-0.8,0-1.3C243.9,250.8,243.9,249.1,243.9,247.5C243.9,247.5,243.9,247.5,243.9,247.5z"/>
			<path class="st3" d="M240.1,241.1c0.6,0,1.3,0,1.9,0c0.1,0,0.1,0,0.2,0c0.1,0,0.1,0,0.1,0.1c-0.2,0.5-0.5,1.1-0.7,1.6
				c-0.2,0.4-0.3,0.8-0.5,1.2c-0.3,0.7-0.6,1.3-0.9,2c0,0,0,0.1-0.1,0.1c0,0-0.1,0.1-0.1,0.1c0,0-0.1-0.1-0.1-0.1
				c-0.1-0.2-0.2-0.4-0.3-0.6c-0.2-0.4-0.3-0.7-0.5-1.1c-0.2-0.5-0.4-0.9-0.6-1.4c-0.2-0.5-0.4-0.9-0.6-1.4
				c-0.1-0.1-0.1-0.3-0.2-0.4c0-0.1,0-0.2,0.1-0.2c0.1,0,0.3,0,0.4,0C239,241.1,239.5,241.1,240.1,241.1
				C240.1,241.1,240.1,241.1,240.1,241.1z"/>
			<path class="st3" d="M238.7,248.2c0-0.8,0.6-1.5,1.5-1.5c0.8,0,1.4,0.6,1.4,1.5c0,0.9-0.7,1.5-1.5,1.5
				C239.3,249.7,238.6,249.1,238.7,248.2z"/>
		</g>
	</g>
</g>
<g>
	<path class="st4" d="M53,272.7c-12.6-12.6-12.6-33,0-45.6"/>
	<path class="st4" d="M39,284.2c-18.9-18.9-18.9-49.6,0-68.5"/>
	<path class="st4" d="M25,301.3c-28.4-28.4-28.4-74.3,0-102.7"/>
</g>
<g>
	<path class="st4" d="M447.7,272.7c12.6-12.6,12.6-33,0-45.6"/>
	<path class="st4" d="M461.7,284.2c18.9-18.9,18.9-49.6,0-68.5"/>
	<path class="st4" d="M475.7,301.3c28.4-28.4,28.4-74.3,0-102.7"/>
</g>
</svg>
