<svg xmlns="http://www.w3.org/2000/svg" xmlns:xlink="http://www.w3.org/1999/xlink" viewBox="0 0 615.65 241.27"><defs><style>.cls-1{fill:none;}.cls-2{fill:#4baf87;}.cls-3{fill:url(#green_dots);}.cls-4{fill:#fff;}</style><pattern id="green_dots" data-name="green_dots" width="12.5" height="22.5" patternTransform="translate(0 -7)" patternUnits="userSpaceOnUse" viewBox="0 0 12.5 22.5"><rect class="cls-1" width="12.5" height="22.5"/><circle class="cls-2" cx="12.5" cy="22.5" r="2.5"/><circle class="cls-2" cy="22.5" r="2.5"/><circle class="cls-2" cx="6.25" cy="11.25" r="2.5"/><circle class="cls-2" cx="12.5" r="2.5"/><circle class="cls-2" r="2.5"/></pattern></defs><title>jbl</title><g id="Layer_2" data-name="Layer 2"><g id="Layer_20" data-name="Layer 20"><path class="cls-2" d="M606.82,11.15,593.94,2.86A17.92,17.92,0,0,0,584.22,0H31.43a17.92,17.92,0,0,0-9.72,2.86L8.82,11.15A19.28,19.28,0,0,0,0,27.33V213.94a19.28,19.28,0,0,0,8.82,16.18l12.89,8.29a17.92,17.92,0,0,0,9.72,2.86H584.22a17.92,17.92,0,0,0,9.72-2.86l12.88-8.29a19.24,19.24,0,0,0,8.83-16.18V27.33A19.24,19.24,0,0,0,606.82,11.15ZM578.55,230.33H37.09V10.94H578.55Z"/><rect class="cls-3" x="31.7" y="2.38" width="552.26" height="236.51"/><rect class="cls-2" x="271.85" y="89.15" width="74.88" height="58.24"/><path class="cls-4" d="M304.36,118V105.85c0-.16.05-.26.23-.26l3.15,0h4.86a3.79,3.79,0,0,1,2.77,1.13,3.9,3.9,0,0,1,1.19,2.86c0,1.53,0,3.07,0,4.6a3.07,3.07,0,0,1-.5,1.59,5.19,5.19,0,0,1-.91,1,1.32,1.32,0,0,1-.37.21c-.17.09-.15.19,0,.29s.21.1.31.16a4,4,0,0,1,1.7,2.5,6.22,6.22,0,0,1,.13,1.49c0,1.7,0,3.4,0,5.1a3.85,3.85,0,0,1-.76,2.31,4,4,0,0,1-3.2,1.65c-1.08,0-2.15,0-3.22,0h-5c-.28,0-.35-.07-.35-.35V118Zm4,5.22v4.55c0,.3.09.4.37.4.77,0,1.53,0,2.29,0a1.65,1.65,0,0,0,.62-.14,1.3,1.3,0,0,0,.84-1,4.91,4.91,0,0,0,.06-.86c0-1.71,0-3.43,0-5.15a4,4,0,0,0-.17-1.57,1.69,1.69,0,0,0-1.24-1.08,14.35,14.35,0,0,0-2.54,0c-.18,0-.24.12-.23.29Zm0-11.34h0v3.74c0,.45,0,.48.46.48s.78,0,1.17,0,.87,0,1.3-.09a1.46,1.46,0,0,0,1-1.24c0-1.73,0-3.45,0-5.17a1.91,1.91,0,0,0-.21-.89,1.7,1.7,0,0,0-1.46-1,16.17,16.17,0,0,0-2,0c-.3,0-.34.06-.34.36C308.36,109.34,308.37,110.6,308.37,111.87Z"/><path class="cls-4" d="M320,118V106.28c0-.12,0-.24,0-.36s.05-.32.32-.32.79,0,1.19,0h2.36c.21,0,.3,0,.3.27,0,1.45,0,2.89,0,4.34q0,7.76,0,15.5a6.34,6.34,0,0,0,0,1.31,1.72,1.72,0,0,0,1.45,1.39,4.23,4.23,0,0,0,1.18,0,1.69,1.69,0,0,0,1.33-1.64c0-1.14,0-2.28,0-3.41,0-.4,0-.44.43-.44h3.17c.38,0,.41,0,.41.4q0,3.43,0,6.85c0,.32,0,.36-.35.36H320.34c-.31,0-.35,0-.35-.36V118Z"/><path class="cls-4" d="M296.71,116.51V105.85c0-.17.05-.26.25-.26h3.53c.33,0,.35,0,.35.37v2.69q0,8.43,0,16.84c0,.19,0,.38,0,.57a4.68,4.68,0,0,1-.45,2.12,4.9,4.9,0,0,1-.31.48c-.14.2-.27.4-.41.59a4.49,4.49,0,0,1-1.6,1.24,4.33,4.33,0,0,1-2.12.47c-1.05,0-2.1,0-3.15,0a3.65,3.65,0,0,1-1.59-.42,5.55,5.55,0,0,1-1.46-1,5.13,5.13,0,0,1-.54-.69,5,5,0,0,1-.86-3.11v-2.45c0-.32,0-.37.35-.37l3.62,0c.24,0,.31.11.31.32,0,1.17,0,2.35,0,3.53a3.08,3.08,0,0,0,.07.68,1.84,1.84,0,0,0,1.86,1.52,2.18,2.18,0,0,0,1.36-.35,1.86,1.86,0,0,0,.79-1.5c0-.71,0-1.43,0-2.15v-8.41Z"/><path class="cls-4" d="M290.31,105.59h3.31a2.17,2.17,0,0,1,.36,0c.14,0,.22.06.14.23-.41.9-.81,1.81-1.21,2.72l-.86,2c-.5,1.14-1,2.28-1.52,3.41a1.73,1.73,0,0,1-.1.24,1.24,1.24,0,0,1-.14.18c-.05-.05-.13-.09-.16-.15l-.47-1-.84-1.89c-.36-.8-.71-1.61-1.07-2.42s-.71-1.57-1.06-2.36c-.1-.21-.19-.43-.28-.65s0-.29.18-.3l.69,0h3Z"/><path class="cls-4" d="M287.79,117.75a2.41,2.41,0,0,1,2.51-2.5,2.48,2.48,0,0,1,2.45,2.5,2.4,2.4,0,0,1-2.5,2.51A2.38,2.38,0,0,1,287.79,117.75Z"/></g></g></svg>