<svg xmlns="http://www.w3.org/2000/svg" xmlns:xlink="http://www.w3.org/1999/xlink" viewBox="0 0 847.27 241.27"><defs><style>.cls-1,.cls-5{fill:none;}.cls-2{fill:#4baf87;}.cls-3{fill:url(#green_dots);}.cls-4{fill:#fff;}.cls-5{stroke:#fff;stroke-linecap:round;stroke-miterlimit:10;stroke-width:3px;opacity:0.6;}</style><pattern id="green_dots" data-name="green_dots" width="12.5" height="22.5" patternTransform="translate(0 -7)" patternUnits="userSpaceOnUse" viewBox="0 0 12.5 22.5"><rect class="cls-1" width="12.5" height="22.5"/><circle class="cls-2" cx="12.5" cy="22.5" r="2.5"/><circle class="cls-2" cy="22.5" r="2.5"/><circle class="cls-2" cx="6.25" cy="11.25" r="2.5"/><circle class="cls-2" cx="12.5" r="2.5"/><circle class="cls-2" r="2.5"/></pattern></defs><title>jbl_soundwave</title><g id="Layer_2" data-name="Layer 2"><g id="Layer_20" data-name="Layer 20"><path class="cls-2" d="M722.64,11.15,709.75,2.86A17.92,17.92,0,0,0,700,0H147.24a17.92,17.92,0,0,0-9.72,2.86l-12.88,8.29a19.26,19.26,0,0,0-8.83,16.18V213.94a19.26,19.26,0,0,0,8.83,16.18l12.88,8.29a17.92,17.92,0,0,0,9.72,2.86H700a17.92,17.92,0,0,0,9.72-2.86l12.89-8.29a19.26,19.26,0,0,0,8.82-16.18V27.33A19.26,19.26,0,0,0,722.64,11.15ZM694.37,230.33H152.91V10.94H694.37Z"/><rect class="cls-3" x="147.51" y="2.38" width="552.26" height="236.51"/><rect class="cls-2" x="387.67" y="89.15" width="74.88" height="58.24"/><path class="cls-4" d="M420.18,118V106.78c0-.31,0-.62,0-.93,0-.16.05-.26.23-.26l3.15,0h4.87a3.77,3.77,0,0,1,2.76,1.13,3.9,3.9,0,0,1,1.19,2.86c0,1.53,0,3.07,0,4.6a3.18,3.18,0,0,1-.51,1.59,5.5,5.5,0,0,1-.9,1,1.55,1.55,0,0,1-.38.21c-.17.09-.15.19,0,.29s.21.1.31.16a4,4,0,0,1,1.7,2.5,6.22,6.22,0,0,1,.13,1.49c0,1.7,0,3.4,0,5.1a3.86,3.86,0,0,1-.77,2.31,4,4,0,0,1-3.2,1.65c-1.07,0-2.15,0-3.22,0h-5c-.28,0-.35-.07-.35-.35V118Zm4,5.22v4.55c0,.3.1.4.38.4.76,0,1.52,0,2.28,0a1.61,1.61,0,0,0,.62-.14,1.3,1.3,0,0,0,.84-1,4.91,4.91,0,0,0,.06-.86c0-1.71,0-3.43,0-5.15a4,4,0,0,0-.16-1.57,1.7,1.7,0,0,0-1.25-1.08,14.35,14.35,0,0,0-2.54,0c-.18,0-.23.12-.23.29Zm0-11.34h0v3.74c0,.45,0,.48.46.48s.78,0,1.17,0,.87,0,1.3-.09a1.46,1.46,0,0,0,1-1.24c0-1.73,0-3.45,0-5.17a1.91,1.91,0,0,0-.21-.89,1.7,1.7,0,0,0-1.45-1,16.35,16.35,0,0,0-2,0c-.3,0-.34.06-.34.36Z"/><path class="cls-4" d="M435.81,118V105.92c0-.27,0-.32.31-.32s.79,0,1.19,0h2.36c.21,0,.3,0,.3.27,0,1.45,0,2.89,0,4.34v15.5a7.12,7.12,0,0,0,0,1.31,1.72,1.72,0,0,0,1.45,1.39,4.22,4.22,0,0,0,1.18,0,1.7,1.7,0,0,0,1.34-1.64c0-1.14,0-2.28,0-3.41,0-.4,0-.44.44-.44h3.17c.37,0,.41,0,.41.4v6.85c0,.32,0,.36-.35.36H436.15c-.31,0-.34,0-.34-.36V118Z"/><path class="cls-4" d="M412.52,116.51V105.85c0-.17.05-.26.25-.26h3.53c.33,0,.35,0,.35.37v2.69q0,8.43,0,16.84a5.42,5.42,0,0,0,0,.57,4.56,4.56,0,0,1-.46,2.12,2.8,2.8,0,0,1-.31.48c-.13.2-.26.4-.41.59a4.41,4.41,0,0,1-1.6,1.24,4.31,4.31,0,0,1-2.12.47c-1.05,0-2.1,0-3.15,0a3.73,3.73,0,0,1-1.59-.42,5.9,5.9,0,0,1-1.46-1,6.08,6.08,0,0,1-.54-.69,5,5,0,0,1-.86-3.11c0-.82,0-1.64,0-2.45,0-.32,0-.37.35-.37,1.21,0,2.42,0,3.63,0,.23,0,.3.11.3.32v3.53a3.08,3.08,0,0,0,.07.68,1.85,1.85,0,0,0,1.87,1.52,2.15,2.15,0,0,0,1.35-.35,1.86,1.86,0,0,0,.79-1.5c0-.71,0-1.43,0-2.15v-8.41Z"/><path class="cls-4" d="M406.12,105.59h3.32a2,2,0,0,1,.35,0c.14,0,.22.06.14.23-.41.9-.81,1.81-1.2,2.72l-.87,2c-.5,1.14-1,2.28-1.52,3.41a1.73,1.73,0,0,1-.1.24.79.79,0,0,1-.14.18c-.05-.05-.13-.09-.16-.15-.16-.34-.31-.68-.46-1-.29-.63-.57-1.26-.85-1.89-.36-.8-.7-1.61-1.06-2.42l-1.07-2.36c-.1-.21-.18-.43-.28-.65s0-.29.18-.3l.69,0h3Z"/><path class="cls-4" d="M403.61,117.75a2.4,2.4,0,0,1,2.5-2.5,2.49,2.49,0,0,1,2.46,2.5,2.41,2.41,0,0,1-2.51,2.51A2.36,2.36,0,0,1,403.61,117.75Z"/><path class="cls-5" d="M85.81,159.69a55.23,55.23,0,0,1,0-78.11"/><path class="cls-5" d="M61.86,179.22a82.84,82.84,0,0,1,0-117.17"/><path class="cls-5" d="M37.9,208.52a124.3,124.3,0,0,1,0-175.77"/><path class="cls-5" d="M761.46,159.69a55.23,55.23,0,0,0,0-78.11"/><path class="cls-5" d="M785.42,179.22a82.86,82.86,0,0,0,0-117.17"/><path class="cls-5" d="M809.37,208.52a124.28,124.28,0,0,0,0-175.77"/></g></g></svg>