<svg xmlns="http://www.w3.org/2000/svg" viewBox="0 0 740.44 408.48"><defs><style>.cls-1,.cls-3{fill:#7fb3d7;}.cls-1{stroke:#7fb3d7;stroke-miterlimit:10;stroke-width:5px;}.cls-2{fill:#273343;}.cls-4{fill:#fff;}.cls-5{fill:#e6a537;}.cls-6{fill:#a5323d;}.cls-7{fill:#4baf87;}.cls-8{fill:#c14048;}</style></defs><title>monitor1</title><g id="Layer_2" data-name="Layer 2"><g id="_1" data-name="1"><rect class="cls-1" x="201.64" y="-196.64" width="337.16" height="735.44" transform="translate(541.3 -199.14) rotate(90)"/><rect class="cls-2" x="12.5" y="12.5" width="715.44" height="306.62"/><rect class="cls-3" x="355.58" y="339.66" width="29.65" height="59.29"/><polygon class="cls-3" points="585.69 408.49 154.75 408.49 178.2 390.49 562.24 390.49 585.69 408.49"/><g id="_18" data-name="18"><path class="cls-4" d="M192.46,128.62v49.59A24.79,24.79,0,0,0,217.25,203V153.41A24.79,24.79,0,0,0,192.46,128.62Z"/><path class="cls-4" d="M276.64,153.41a24.79,24.79,0,1,0-46.26,12.4,24.8,24.8,0,1,0,42.93,0A24.59,24.59,0,0,0,276.64,153.41Zm-24.85,33.94a8.27,8.27,0,1,1,8.26-8.26A8.26,8.26,0,0,1,251.79,187.35Zm.06-26a8.27,8.27,0,1,1,8.26-8.27A8.27,8.27,0,0,1,251.85,161.3Z"/></g><g id="simonyi"><path class="cls-5" d="M300.58,170.16a22.07,22.07,0,0,1-7-3l3.52-7.89A24,24,0,0,0,309.56,163q6.17,0,6.16-3.08a2.55,2.55,0,0,0-1.76-2.41,32.66,32.66,0,0,0-5.65-1.65,54.18,54.18,0,0,1-7.13-2,12,12,0,0,1-4.92-3.38,9.14,9.14,0,0,1-2.06-6.28,10.88,10.88,0,0,1,1.89-6.24,12.71,12.71,0,0,1,5.65-4.41,23.31,23.31,0,0,1,9.22-1.62,32.52,32.52,0,0,1,7.36.84,22.68,22.68,0,0,1,6.38,2.46l-3.3,8a22,22,0,0,0-10.49-2.92,8.79,8.79,0,0,0-4.65.94,2.87,2.87,0,0,0-1.46,2.46,2.45,2.45,0,0,0,1.73,2.28,31.68,31.68,0,0,0,5.57,1.56,52.07,52.07,0,0,1,7.16,2,12.39,12.39,0,0,1,4.92,3.35,8.93,8.93,0,0,1,2.08,6.24,10.66,10.66,0,0,1-1.89,6.17,12.77,12.77,0,0,1-5.68,4.4,22.91,22.91,0,0,1-9.19,1.65A34.84,34.84,0,0,1,300.58,170.16Z"/><path class="cls-5" d="M331.18,132.69h10.71v37.85H331.18Z"/><path class="cls-5" d="M383.68,170.54l-.1-20.06-9.74,16.33h-4.76L359.41,151v19.52h-9.9V132.69h8.82l13.3,21.84,13-21.84h8.82l.1,37.85Z"/><path class="cls-5" d="M409.39,168.75a19.36,19.36,0,0,1,0-34.28,24.19,24.19,0,0,1,21.58,0,19.36,19.36,0,0,1,0,34.28,24.19,24.19,0,0,1-21.58,0Zm16-7.67a9.8,9.8,0,0,0,3.68-3.82,12.5,12.5,0,0,0,0-11.3,9.71,9.71,0,0,0-3.68-3.81,10.65,10.65,0,0,0-10.38,0,9.71,9.71,0,0,0-3.68,3.81,12.5,12.5,0,0,0,0,11.3,9.8,9.8,0,0,0,3.68,3.82,10.65,10.65,0,0,0,10.38,0Z"/><path class="cls-5" d="M482.85,132.69v37.85H474l-16.7-20.17v20.17H446.84V132.69h8.81l16.71,20.17V132.69Z"/><path class="cls-5" d="M510.69,157v13.57H500V156.8l-14.44-24.11h11.3l9,15,9-15h10.38Z"/><path class="cls-5" d="M527.88,132.69h10.71v37.85H527.88Z"/><path class="cls-4" d="M302.32,189.19,297.61,194v5.52h-1.53v-21h1.53V192l13.11-13.5h1.86l-9.24,9.54,9.87,11.46h-1.86Z"/><path class="cls-4" d="M323.35,198.29a10.28,10.28,0,0,1-3.92-3.82,11.09,11.09,0,0,1,0-10.86,10.3,10.3,0,0,1,3.92-3.83,11.93,11.93,0,0,1,11.16,0,10.15,10.15,0,0,1,3.91,3.81,11.14,11.14,0,0,1,0,10.92,10.15,10.15,0,0,1-3.91,3.81,11.9,11.9,0,0,1-11.16,0Zm10.35-1.21a8.85,8.85,0,0,0,3.36-3.32,9.69,9.69,0,0,0,0-9.45A8.83,8.83,0,0,0,333.7,181a9.55,9.55,0,0,0-4.77-1.2,9.65,9.65,0,0,0-4.79,1.2,8.78,8.78,0,0,0-3.37,3.31,9.69,9.69,0,0,0,0,9.45,8.81,8.81,0,0,0,3.37,3.32,9.65,9.65,0,0,0,4.79,1.2A9.55,9.55,0,0,0,333.7,197.08Z"/><path class="cls-4" d="M365.11,178.54v21h-1.26L349.54,181.3v18.24H348v-21h1.29l14.28,18.24V178.54Z"/><path class="cls-4" d="M376.81,179.92v9H388v1.38H376.81v9.27h-1.53v-21h14v1.38Z"/><path class="cls-4" d="M411.55,198.16v1.38H397.06v-21h14v1.38H398.59v8.28h11.19v1.35H398.59v8.61Z"/><path class="cls-4" d="M434.56,199.54l-5-7a15.32,15.32,0,0,1-2,.15h-6v6.87H420v-21h7.53a9.41,9.41,0,0,1,6.21,1.87,6.42,6.42,0,0,1,2.25,5.21,6.43,6.43,0,0,1-4.92,6.57l5.25,7.35Zm-7.05-8.22a7.79,7.79,0,0,0,5.13-1.49,5.9,5.9,0,0,0,0-8.43,7.79,7.79,0,0,0-5.13-1.48h-6v11.4Z"/><path class="cls-4" d="M458.92,198.16v1.38H444.43v-21h14v1.38H446v8.28h11.19v1.35H446v8.61Z"/><path class="cls-4" d="M484.45,178.54v21h-1.26L468.88,181.3v18.24h-1.53v-21h1.29l14.28,18.24V178.54Z"/><path class="cls-4" d="M497.93,198.31a10.2,10.2,0,0,1-3.9-3.81,11.21,11.21,0,0,1,0-10.92,10.2,10.2,0,0,1,3.9-3.81,11.22,11.22,0,0,1,5.57-1.38,11.73,11.73,0,0,1,4.2.73A8.63,8.63,0,0,1,511,181.3l-1,1a8.77,8.77,0,0,0-6.45-2.49,9.74,9.74,0,0,0-4.8,1.2,8.74,8.74,0,0,0-3.38,3.31,9.62,9.62,0,0,0,0,9.45,8.77,8.77,0,0,0,3.38,3.32,9.74,9.74,0,0,0,4.8,1.2,8.8,8.8,0,0,0,6.45-2.52l1,1a8.69,8.69,0,0,1-3.28,2.19,11.45,11.45,0,0,1-4.18.75A11.22,11.22,0,0,1,497.93,198.31Z"/><path class="cls-4" d="M519,178.54h1.53v21H519Z"/><path class="cls-4" d="M543.63,193.63H531.45l-2.67,5.91h-1.65l9.66-21h1.53l9.66,21h-1.65Zm-.57-1.29-5.52-12.12-5.49,12.12Z"/></g><g id="bal_also"><path class="cls-6" d="M163.31,232.1l-87,87H45.82L148.07,216.87a10.77,10.77,0,0,1,15.24,15.23Z"/><path class="cls-5" d="M162.43,263.22l-55.9,55.9H76.06L147.2,248a10.66,10.66,0,0,1,1.42-1.19,10.77,10.77,0,0,1,13.81,16.43Z"/><path class="cls-5" d="M75.6,229.58,61.65,243.53,12.5,292.68V262.21l47.87-47.87A10.77,10.77,0,0,1,75.6,229.58Z"/><path class="cls-6" d="M77,258a10.46,10.46,0,0,1-1.56,2L16.29,319.12H12.5V292.45l47.71-47.71a10.26,10.26,0,0,1,1.44-1.21A10.77,10.77,0,0,1,77,258Z"/><path class="cls-7" d="M119.58,245.36a10.78,10.78,0,0,1-1.7,2.21L46.33,319.12H15.87L77,258l25.65-25.65a10.77,10.77,0,0,1,16.93,13Z"/></g><g id="jobb_felso"><path class="cls-5" d="M727.94,12.5V41.16l-62.18,62.18,0,0L634.11,135a10.74,10.74,0,1,1-15.19-15.19l25.59-25.59L726.22,12.5Z"/><path class="cls-7" d="M727.94,40.69V71.06l-45.35,45.35a10.74,10.74,0,0,1-16.85-13l0,0a10.9,10.9,0,0,1,1.64-2.11Z"/><path class="cls-8" d="M726.66,12.5,646.54,92.62a10.23,10.23,0,0,1-2,1.59A10.74,10.74,0,0,1,631,77.83l.38-.4L696.28,12.5Z"/><path class="cls-7" d="M696.3,12.5,609.72,99.08a10.74,10.74,0,0,1-15.19-15.19l18.52-18.52,0,0L665.92,12.5Z"/><path class="cls-5" d="M666.1,12.5,614.32,64.28a11.31,11.31,0,0,1-1.24,1.07l0,0A10.74,10.74,0,0,1,599.14,49.1l36.6-36.6Z"/></g></g></g></svg>