<svg xmlns="http://www.w3.org/2000/svg" viewBox="0 0 740.44 408.48"><defs><style>.cls-1,.cls-3{fill:#7fb3d7;}.cls-1{stroke:#7fb3d7;}.cls-1,.cls-10,.cls-7,.cls-8,.cls-9{stroke-miterlimit:10;}.cls-1,.cls-10,.cls-7,.cls-8{stroke-width:5px;}.cls-2{fill:#273343;}.cls-4{fill:#4baf87;}.cls-5{fill:#e6a537;}.cls-6{fill:#c14048;}.cls-10,.cls-7,.cls-8,.cls-9{fill:none;stroke-linecap:round;}.cls-7,.cls-8{stroke:#fff;}.cls-8{stroke-dasharray:0 13.76;}.cls-9{stroke:#e6a537;stroke-width:3px;}.cls-10{stroke:#c14048;}</style></defs><title>monitor3</title><g id="Layer_2" data-name="Layer 2"><g id="_3" data-name="3"><rect class="cls-1" x="201.64" y="-196.64" width="337.16" height="735.44" transform="translate(541.3 -199.14) rotate(90)"/><rect class="cls-2" x="12.5" y="12.5" width="715.44" height="306.62"/><rect class="cls-3" x="355.58" y="339.66" width="29.65" height="59.29"/><polygon class="cls-3" points="585.69 408.49 154.75 408.49 178.2 390.49 562.24 390.49 585.69 408.49"/><path class="cls-4" d="M389.91,291.06,370.22,257l-19.68,34.1h6.22l-4.87,8.45h36.67l-4.88-8.45Zm-36.68-1.56,17-29.42,17,29.42h-4.43l-12.56-21.75L357.66,289.5Z"/><polygon class="cls-5" points="370.22 48.06 353.01 30.84 336.97 46.88 370.22 80.14 403.48 46.88 387.44 30.84 370.22 48.06"/><polygon class="cls-6" points="160.88 48.06 143.67 30.84 127.63 46.88 160.88 80.14 194.14 46.88 178.1 30.84 160.88 48.06"/><path class="cls-5" d="M56.09,68.19,37.23,49.33a3.69,3.69,0,1,1,5.21-5.22L56.09,57.77,70,43.87a3.68,3.68,0,1,1,5.21,5.21Z"/><path class="cls-6" d="M474.77,68.19,455.9,49.33a3.69,3.69,0,0,1,5.22-5.22l13.65,13.66,13.9-13.9a3.68,3.68,0,0,1,5.21,5.21Z"/><path class="cls-4" d="M684.11,68.19,665.24,49.33a3.69,3.69,0,0,1,5.21-5.22l13.66,13.66L698,43.87a3.69,3.69,0,1,1,5.22,5.21Z"/><path class="cls-4" d="M265.43,68.19,246.57,49.33a3.69,3.69,0,0,1,5.21-5.22l13.65,13.66,13.9-13.9a3.68,3.68,0,1,1,5.21,5.21Z"/><path class="cls-6" d="M317.85,139,299,120.15a3.68,3.68,0,0,1,5.21-5.21l13.65,13.65,13.9-13.89a3.68,3.68,0,1,1,5.21,5.21Z"/><polygon class="cls-5" points="650.22 113.88 637.38 101.04 625.42 113 650.22 137.81 675.03 113 663.06 101.04 650.22 113.88"/><line class="cls-7" x1="370.4" y1="247.79" x2="370.4" y2="247.79"/><line class="cls-8" x1="370.4" y1="234.02" x2="370.4" y2="172.08"/><line class="cls-7" x1="370.4" y1="165.2" x2="370.4" y2="165.2"/><line class="cls-9" x1="106.63" y1="135.84" x2="96.21" y2="125.42"/><line class="cls-9" x1="84.23" y1="113.44" x2="73.81" y2="103.02"/><line class="cls-9" x1="84.23" y1="125.42" x2="73.81" y2="135.84"/><line class="cls-9" x1="106.63" y1="103.02" x2="96.21" y2="113.44"/><line class="cls-10" x1="90.22" y1="144.31" x2="90.22" y2="127.9"/><line class="cls-10" x1="90.22" y1="110.96" x2="90.22" y2="94.54"/><line class="cls-10" x1="81.75" y1="119.43" x2="65.34" y2="119.43"/><line class="cls-10" x1="115.1" y1="119.43" x2="98.69" y2="119.43"/><line class="cls-9" x1="438.88" y1="142.73" x2="428.46" y2="132.31"/><line class="cls-9" x1="416.48" y1="120.33" x2="406.06" y2="109.91"/><line class="cls-9" x1="416.48" y1="132.31" x2="406.06" y2="142.73"/><line class="cls-9" x1="438.88" y1="109.91" x2="428.46" y2="120.33"/><line class="cls-10" x1="422.47" y1="151.2" x2="422.47" y2="134.79"/><line class="cls-10" x1="422.47" y1="117.85" x2="422.47" y2="101.43"/><line class="cls-10" x1="414" y1="126.32" x2="397.59" y2="126.32"/><line class="cls-10" x1="447.35" y1="126.32" x2="430.94" y2="126.32"/><line class="cls-9" x1="595.97" y1="71.91" x2="585.55" y2="61.49"/><line class="cls-9" x1="573.57" y1="49.51" x2="563.15" y2="39.09"/><line class="cls-9" x1="573.57" y1="61.49" x2="563.15" y2="71.91"/><line class="cls-9" x1="595.97" y1="39.09" x2="585.55" y2="49.51"/><line class="cls-10" x1="579.56" y1="80.38" x2="579.56" y2="63.97"/><line class="cls-10" x1="579.56" y1="47.03" x2="579.56" y2="30.61"/><line class="cls-10" x1="571.09" y1="55.5" x2="554.68" y2="55.5"/><line class="cls-10" x1="604.44" y1="55.5" x2="588.03" y2="55.5"/></g></g></svg>