<svg xmlns="http://www.w3.org/2000/svg" viewBox="0 0 740.44 408.48"><defs><style>.cls-1,.cls-3{fill:#7fb3d7;}.cls-1{stroke:#7fb3d7;}.cls-1,.cls-7,.cls-8{stroke-miterlimit:10;}.cls-1,.cls-8{stroke-width:5px;}.cls-2{fill:#273343;}.cls-4{fill:#c14048;}.cls-5,.cls-7{fill:#fff;}.cls-6{fill:#e6a537;}.cls-7,.cls-8{stroke:#fff;stroke-linecap:round;}.cls-7{stroke-width:7px;}.cls-8{fill:none;}.cls-9{fill:#4baf87;}</style></defs><title>Asset 2</title><g id="Layer_2" data-name="Layer 2"><g id="_2" data-name="2"><rect class="cls-1" x="201.64" y="-196.64" width="337.16" height="735.44" transform="translate(541.3 -199.14) rotate(90)"/><rect class="cls-2" x="12.5" y="12.5" width="715.44" height="306.62"/><rect class="cls-3" x="355.58" y="339.66" width="29.65" height="59.29"/><polygon class="cls-3" points="585.69 408.49 154.75 408.49 178.2 390.49 562.24 390.49 585.69 408.49"/><rect class="cls-4" x="126.24" y="-58.21" width="251.68" height="431.37" transform="translate(409.56 -94.61) rotate(90)"/><rect class="cls-2" x="38.34" y="33.58" width="427.48" height="240.46"/><g id="_18" data-name="18"><path class="cls-5" d="M81.65,117.63v48.24A24.12,24.12,0,0,0,105.77,190V141.75A24.12,24.12,0,0,0,81.65,117.63Z"/><path class="cls-5" d="M163.55,141.75a24.12,24.12,0,1,0-45,12.06,24.13,24.13,0,1,0,41.77,0A23.93,23.93,0,0,0,163.55,141.75Zm-24.18,33a8,8,0,1,1,8-8A8,8,0,0,1,139.37,174.77Zm.06-25.35a8,8,0,1,1,8-8A8,8,0,0,1,139.43,149.42Z"/></g><g id="simonyi"><path class="cls-6" d="M186.84,158A21.08,21.08,0,0,1,180,155.1l3.42-7.68a23.28,23.28,0,0,0,12.15,3.63q6,0,6-3a2.49,2.49,0,0,0-1.71-2.34,31.92,31.92,0,0,0-5.5-1.61,50.64,50.64,0,0,1-6.94-1.92,11.69,11.69,0,0,1-4.79-3.28,8.92,8.92,0,0,1-2-6.11,10.54,10.54,0,0,1,1.84-6.07,12.29,12.29,0,0,1,5.5-4.29,22.68,22.68,0,0,1,9-1.58,31.81,31.81,0,0,1,7.15.82,21.89,21.89,0,0,1,6.21,2.39l-3.21,7.73a21.49,21.49,0,0,0-10.2-2.84,8.62,8.62,0,0,0-4.53.92,2.77,2.77,0,0,0-1.42,2.4,2.37,2.37,0,0,0,1.69,2.21A29.91,29.91,0,0,0,198,136a51.64,51.64,0,0,1,7,1.92,12.12,12.12,0,0,1,4.79,3.26,8.72,8.72,0,0,1,2,6.08,10.35,10.35,0,0,1-1.84,6,12.51,12.51,0,0,1-5.52,4.28,22.32,22.32,0,0,1-8.94,1.61A33.87,33.87,0,0,1,186.84,158Z"/><path class="cls-6" d="M216.61,121.59H227v36.82H216.61Z"/><path class="cls-6" d="M267.68,158.41l-.1-19.51-9.47,15.88h-4.63l-9.41-15.36v19h-9.63V121.59H243l13,21.25,12.62-21.25h8.57l.11,36.82Z"/><path class="cls-6" d="M292.7,156.68a18.82,18.82,0,0,1,0-33.35,23.45,23.45,0,0,1,21,0,18.83,18.83,0,0,1,0,33.35,23.53,23.53,0,0,1-21,0Zm15.54-7.47a9.54,9.54,0,0,0,3.58-3.71,12.2,12.2,0,0,0,0-11,9.44,9.44,0,0,0-3.58-3.7,10.32,10.32,0,0,0-10.1,0,9.44,9.44,0,0,0-3.58,3.7,12.2,12.2,0,0,0,0,11,9.54,9.54,0,0,0,3.58,3.71,10.39,10.39,0,0,0,10.1,0Z"/><path class="cls-6" d="M364.15,121.59v36.82h-8.57l-16.25-19.62v19.62H329.12V121.59h8.58L354,141.21V121.59Z"/><path class="cls-6" d="M391.24,145.21v13.2H380.83V145.05l-14-23.46h11l8.73,14.62,8.73-14.62h10.1Z"/><path class="cls-6" d="M408,121.59h10.42v36.82H408Z"/><path class="cls-5" d="M188.53,176.56,184,181.25v5.37h-1.49V166.19H184v13.14l12.75-13.14h1.81l-9,9.29,9.6,11.14h-1.81Z"/><path class="cls-5" d="M209,185.41a9.87,9.87,0,0,1-3.81-3.72,10.72,10.72,0,0,1,0-10.56,9.87,9.87,0,0,1,3.81-3.72,10.83,10.83,0,0,1,5.42-1.36,11,11,0,0,1,5.43,1.34,9.85,9.85,0,0,1,3.81,3.71,10.84,10.84,0,0,1,0,10.62,9.85,9.85,0,0,1-3.81,3.71,11,11,0,0,1-5.43,1.34A10.83,10.83,0,0,1,209,185.41Zm10.06-1.18a8.5,8.5,0,0,0,3.27-3.22,9.42,9.42,0,0,0,0-9.2,8.5,8.5,0,0,0-3.27-3.22,9.81,9.81,0,0,0-9.29,0,8.53,8.53,0,0,0-3.28,3.22,9.42,9.42,0,0,0,0,9.2,8.53,8.53,0,0,0,3.28,3.22,9.81,9.81,0,0,0,9.29,0Z"/><path class="cls-5" d="M249.61,166.19v20.43h-1.22l-13.92-17.74v17.74H233V166.19h1.25l13.89,17.75V166.19Z"/><path class="cls-5" d="M261,167.54v8.72h10.89v1.35H261v9h-1.48V166.19h13.65v1.35Z"/><path class="cls-5" d="M294.79,185.28v1.34h-14.1V166.19h13.66v1.35H282.18v8.05h10.89v1.32H282.18v8.37Z"/><path class="cls-5" d="M317.18,186.62l-4.88-6.82a16.13,16.13,0,0,1-2,.14h-5.84v6.68H303V166.19h7.33a9.13,9.13,0,0,1,6,1.83,6.21,6.21,0,0,1,2.19,5.06,6.61,6.61,0,0,1-1.24,4.07,6.54,6.54,0,0,1-3.55,2.32l5.11,7.15Zm-6.86-8a7.54,7.54,0,0,0,5-1.45,5.75,5.75,0,0,0,0-8.2,7.59,7.59,0,0,0-5-1.44h-5.84v11.09Z"/><path class="cls-5" d="M340.87,185.28v1.34H326.78V166.19h13.66v1.35H328.27v8.05h10.88v1.32H328.27v8.37Z"/><path class="cls-5" d="M365.71,166.19v20.43h-1.22l-13.93-17.74v17.74h-1.48V166.19h1.25l13.89,17.75V166.19Z"/><path class="cls-5" d="M378.83,185.43a9.86,9.86,0,0,1-3.79-3.71,10.84,10.84,0,0,1,0-10.62,9.86,9.86,0,0,1,3.79-3.71,11,11,0,0,1,5.41-1.34,11.52,11.52,0,0,1,4.09.71,8.51,8.51,0,0,1,3.18,2.12l-.93,1a8.59,8.59,0,0,0-6.28-2.42,9.44,9.44,0,0,0-4.67,1.17,8.58,8.58,0,0,0-3.3,3.22,9.49,9.49,0,0,0,0,9.2,8.58,8.58,0,0,0,3.3,3.22,9.44,9.44,0,0,0,4.67,1.17,8.6,8.6,0,0,0,6.28-2.45l.93,1a8.56,8.56,0,0,1-3.2,2.13,11.64,11.64,0,0,1-9.48-.61Z"/><path class="cls-5" d="M399.27,166.19h1.49v20.43h-1.49Z"/><path class="cls-5" d="M423.29,180.87H411.44l-2.59,5.75h-1.61l9.4-20.43h1.49l9.39,20.43h-1.6Zm-.55-1.25-5.37-11.79L412,179.62Z"/></g><line class="cls-7" x1="42.63" y1="297.08" x2="360.28" y2="297.08"/><rect class="cls-6" x="498.52" y="31.64" width="100.59" height="56.58"/><line class="cls-8" x1="610.05" y1="46.87" x2="694.05" y2="46.87"/><line class="cls-8" x1="610.05" y1="59.58" x2="655.22" y2="59.58"/><line class="cls-8" x1="610.05" y1="72.99" x2="668.99" y2="72.99"/><rect class="cls-9" x="498.52" y="102.23" width="100.59" height="56.58"/><line class="cls-8" x1="610.05" y1="117.46" x2="674.05" y2="117.46"/><line class="cls-8" x1="610.05" y1="130.16" x2="665.22" y2="130.16"/><line class="cls-8" x1="610.05" y1="143.58" x2="698.99" y2="143.58"/><rect class="cls-3" x="498.52" y="172.81" width="100.59" height="56.58"/><line class="cls-8" x1="610.05" y1="188.05" x2="704.05" y2="188.05"/><line class="cls-8" x1="610.05" y1="200.75" x2="685.22" y2="200.75"/><line class="cls-8" x1="610.05" y1="214.16" x2="648.99" y2="214.16"/><rect class="cls-4" x="498.52" y="243.4" width="100.59" height="56.58"/><line class="cls-8" x1="610.05" y1="258.63" x2="684.05" y2="258.63"/><line class="cls-8" x1="610.05" y1="271.34" x2="665.22" y2="271.34"/><line class="cls-8" x1="610.05" y1="284.75" x2="658.99" y2="284.75"/></g></g></svg>