<?xml version="1.0" encoding="utf-8"?>
<!-- Generator: Adobe Illustrator 24.2.3, SVG Export Plug-In . SVG Version: 6.00 Build 0)  -->
<svg version="1.1" id="Layer_1" xmlns="http://www.w3.org/2000/svg" xmlns:xlink="http://www.w3.org/1999/xlink" x="0px" y="0px"
	 viewBox="0 0 455.46 228.32" style="enable-background:new 0 0 455.46 228.32;" xml:space="preserve">
<style type="text/css">
	.st0{opacity:0.4;fill:#ffffff;}
</style>
<path class="st0" d="M303.16,0v76.55h76.55V0H303.16z M341.24,37.82L304.18,0.76h37.06V37.82z M341.62,0.76h37.06l-37.06,37.06V0.76
	z M340.97,38.08h-37.06V1.03L340.97,38.08z M303.92,38.46h37.06l-37.06,37.06V38.46z M341.24,38.73v37.06h-37.06L341.24,38.73z
	 M341.62,38.73l37.06,37.06h-37.06V38.73z M341.89,38.46h37.06v37.06L341.89,38.46z M378.95,38.08h-37.06l37.06-37.06V38.08z"/>
<path class="st0" d="M0,0v76.55h76.55V0H0z M38.08,37.82L1.03,0.76h37.06V37.82z M38.46,0.76h37.06L38.46,37.82V0.76z M37.82,38.08
	H0.76V1.03L37.82,38.08z M0.76,38.46h37.06L0.76,75.52V38.46z M38.08,38.73v37.06H1.03L38.08,38.73z M38.46,38.73l37.06,37.06H38.46
	V38.73z M38.73,38.46h37.06v37.06L38.73,38.46z M75.79,38.08H38.73L75.79,1.03V38.08z"/>
<path class="st0" d="M75.79,0v76.55h76.55V0H75.79z M113.87,37.82L76.82,0.76h37.06V37.82z M114.25,0.76h37.06l-37.06,37.06V0.76z
	 M113.61,38.08H76.55V1.03L113.61,38.08z M76.55,38.46h37.06L76.55,75.52V38.46z M113.87,38.73v37.06H76.82L113.87,38.73z
	 M114.25,38.73l37.06,37.06h-37.06V38.73z M114.52,38.46h37.06v37.06L114.52,38.46z M151.58,38.08h-37.06l37.06-37.06V38.08z"/>
<path class="st0" d="M75.79,75.79v76.55h76.55V75.79H75.79z M113.87,113.61L76.82,76.55h37.06V113.61z M114.25,76.55h37.06
	l-37.06,37.06V76.55z M113.61,113.87H76.55V76.82L113.61,113.87z M76.55,114.25h37.06l-37.06,37.06V114.25z M113.87,114.52v37.06
	H76.82L113.87,114.52z M114.25,114.52l37.06,37.06h-37.06V114.52z M114.52,114.25h37.06v37.06L114.52,114.25z M151.58,113.87h-37.06
	l37.06-37.06V113.87z"/>
<path class="st0" d="M151.58,75.79v76.55h76.55V75.79H151.58z M189.66,113.61L152.6,76.55h37.06V113.61z M190.04,76.55h37.06
	l-37.06,37.06V76.55z M189.4,113.87h-37.06V76.82L189.4,113.87z M152.34,114.25h37.06l-37.06,37.06V114.25z M189.66,114.52v37.06
	H152.6L189.66,114.52z M190.04,114.52l37.06,37.06h-37.06V114.52z M190.31,114.25h37.06v37.06L190.31,114.25z M227.37,113.87h-37.06
	l37.06-37.06V113.87z"/>
<path class="st0" d="M378.95,75.79v76.55h76.55V75.79H378.95z M417.03,113.61l-37.06-37.06h37.06V113.61z M417.41,76.55h37.06
	l-37.06,37.06V76.55z M416.76,113.87h-37.06V76.82L416.76,113.87z M379.71,114.25h37.06l-37.06,37.06V114.25z M417.03,114.52v37.06
	h-37.06L417.03,114.52z M417.41,114.52l37.06,37.06h-37.06V114.52z M417.68,114.25h37.06v37.06L417.68,114.25z M454.74,113.87
	h-37.06l37.06-37.06V113.87z"/>
<path class="st0" d="M151.58,151.58v76.55h76.55v-76.55H151.58z M189.66,189.4l-37.06-37.06h37.06V189.4z M190.04,152.34h37.06
	l-37.06,37.06V152.34z M189.4,189.66h-37.06V152.6L189.4,189.66z M152.34,190.04h37.06l-37.06,37.06V190.04z M189.66,190.31v37.06
	H152.6L189.66,190.31z M190.04,190.31l37.06,37.06h-37.06V190.31z M190.31,190.04h37.06v37.06L190.31,190.04z M227.37,189.66h-37.06
	l37.06-37.06V189.66z"/>
<path class="st0" d="M227.37,151.58v76.55h76.55v-76.55H227.37z M265.45,189.4l-37.06-37.06h37.06V189.4z M265.83,152.34h37.06
	l-37.06,37.06V152.34z M265.18,189.66h-37.06V152.6L265.18,189.66z M228.13,190.04h37.06l-37.06,37.06V190.04z M265.45,190.31v37.06
	h-37.06L265.45,190.31z M265.83,190.31l37.06,37.06h-37.06V190.31z M266.1,190.04h37.06v37.06L266.1,190.04z M303.16,189.66H266.1
	l37.06-37.06V189.66z"/>
<path class="st0" d="M303.16,151.58v76.55h76.55v-76.55H303.16z M341.24,189.4l-37.06-37.06h37.06V189.4z M341.62,152.34h37.06
	l-37.06,37.06V152.34z M340.97,189.66h-37.06V152.6L340.97,189.66z M303.92,190.04h37.06l-37.06,37.06V190.04z M341.24,190.31v37.06
	h-37.06L341.24,190.31z M341.62,190.31l37.06,37.06h-37.06V190.31z M341.89,190.04h37.06v37.06L341.89,190.04z M378.95,189.66
	h-37.06l37.06-37.06V189.66z"/>
<path class="st0" d="M227.37,75.79v76.55h76.55V75.79H227.37z M265.45,113.61l-37.06-37.06h37.06V113.61z M265.83,76.55h37.06
	l-37.06,37.06V76.55z M265.18,113.87h-37.06V76.82L265.18,113.87z M228.13,114.25h37.06l-37.06,37.06V114.25z M265.45,114.52v37.06
	h-37.06L265.45,114.52z M265.83,114.52l37.06,37.06h-37.06V114.52z M266.1,114.25h37.06v37.06L266.1,114.25z M303.16,113.87H266.1
	l37.06-37.06V113.87z"/>
<path class="st0" d="M151.58,0v76.55h76.55V0H151.58z M189.66,37.82L152.6,0.76h37.06V37.82z M190.04,0.76h37.06l-37.06,37.06V0.76z
	 M189.4,38.08h-37.06V1.03L189.4,38.08z M152.34,38.46h37.06l-37.06,37.06V38.46z M189.66,38.73v37.06H152.6L189.66,38.73z
	 M190.04,38.73l37.06,37.06h-37.06V38.73z M190.31,38.46h37.06v37.06L190.31,38.46z M227.37,38.08h-37.06l37.06-37.06V38.08z"/>
<path class="st0" d="M227.37,0v76.55h76.55V0H227.37z M265.45,37.82L228.39,0.76h37.06V37.82z M265.83,0.76h37.06l-37.06,37.06V0.76
	z M265.18,38.08h-37.06V1.03L265.18,38.08z M228.13,38.46h37.06l-37.06,37.06V38.46z M265.45,38.73v37.06h-37.06L265.45,38.73z
	 M265.83,38.73l37.06,37.06h-37.06V38.73z M266.1,38.46h37.06v37.06L266.1,38.46z M303.16,38.08H266.1l37.06-37.06V38.08z"/>
</svg>
