<?xml version="1.0" encoding="utf-8"?>
<!-- Generator: Adobe Illustrator 24.2.3, SVG Export Plug-In . SVG Version: 6.00 Build 0)  -->
<svg version="1.1" id="Layer_1" xmlns="http://www.w3.org/2000/svg" xmlns:xlink="http://www.w3.org/1999/xlink" x="0px" y="0px"
	 viewBox="0 0 152.33 152.34" style="enable-background:new 0 0 152.33 152.34;" xml:space="preserve">
<style type="text/css">
	.st0{opacity:0.4;fill:#ffffff;enable-background:new    ;}
</style>
<path class="st0" d="M75.78,0v76.55h76.55V0H75.78z M113.87,37.81L76.81,0.75h37.06V37.81z M114.25,0.75h37.06l-37.06,37.06
	C114.25,37.81,114.25,0.75,114.25,0.75z M113.6,38.08H76.54V1.02L113.6,38.08z M76.54,38.46h37.06L76.54,75.52V38.46z M113.87,38.73
	v37.06H76.81L113.87,38.73z M114.25,38.73l37.06,37.06h-37.06C114.25,75.79,114.25,38.73,114.25,38.73z M114.52,38.46h37.06v37.06
	L114.52,38.46z M151.57,38.08h-37.06l37.06-37.06V38.08z"/>
<path class="st0" d="M75.78,75.79v76.55h76.55V75.79H75.78z M113.87,113.6L76.81,76.54h37.06V113.6z M114.25,76.54h37.06
	l-37.06,37.06C114.25,113.6,114.25,76.54,114.25,76.54z M113.6,113.87H76.54V76.81L113.6,113.87z M76.54,114.25h37.06l-37.06,37.06
	V114.25z M113.87,114.52v37.06H76.81L113.87,114.52z M114.25,114.52l37.06,37.06h-37.06C114.25,151.58,114.25,114.52,114.25,114.52z
	 M114.52,114.25h37.06v37.06L114.52,114.25z M151.57,113.87h-37.06l37.06-37.06V113.87z"/>
<path class="st0" d="M0,0v76.55h76.55V0H0z M38.08,37.81L1.02,0.75h37.06V37.81z M38.46,0.75h37.06L38.46,37.81V0.75z M37.81,38.08
	H0.75V1.02L37.81,38.08z M0.75,38.46h37.06L0.75,75.52V38.46z M38.08,38.73v37.06H1.02L38.08,38.73z M38.46,38.73l37.06,37.06H38.46
	V38.73z M38.73,38.46h37.05v37.06L38.73,38.46z M75.78,38.08H38.73L75.78,1.02V38.08z"/>
</svg>
